<?xml version="1.0" encoding="UTF-8" standalone="no"?>
<svg width="151px" height="151px" viewBox="0 0 151 151" version="1.1" xmlns="http://www.w3.org/2000/svg" xmlns:xlink="http://www.w3.org/1999/xlink">
    <!-- Generator: sketchtool 3.6.1 (26313) - http://www.bohemiancoding.com/sketch -->
    <title>antivirus-icon</title>
    <desc>Created with sketchtool.</desc>
    <defs>
        <path id="path-1" d="M0,151 L151,151 L151,0 L0,0 L0,151 Z"></path>
    </defs>
    <g id="Page-1" stroke="none" stroke-width="1" fill="none" fill-rule="evenodd">
        <g id="Fibercorp-Security---Tablet---01-Scroll" transform="translate(-64.000000, -765.000000)">
            <g id="antivirus-icon" transform="translate(64.000000, 765.000000)">
                <path d="M150.5,75.5 C150.5,116.921 116.921,150.5 75.5,150.5 C34.079,150.5 0.5,116.921 0.5,75.5 C0.5,34.079 34.079,0.5 75.5,0.5 C116.921,0.5 150.5,34.079 150.5,75.5 L150.5,75.5 Z" id="Stroke-1" stroke="#D0D0D0" stroke-linecap="round" stroke-linejoin="round"></path>
                <path d="M105.9104,59.8103 L105.9104,108.4643 C105.9104,110.1973 104.5054,111.6033 102.7714,111.6033 L36.6214,111.6033 C34.8884,111.6033 33.4824,110.1973 33.4824,108.4643 L33.4824,59.8103 C33.4824,58.0763 34.8884,56.6713 36.6214,56.6713 L102.7714,56.6713 C104.5054,56.6713 105.9104,58.0763 105.9104,59.8103" id="Fill-3" fill="#181D68"></path>
                <path d="M111.3784,53.4253 L111.3784,102.0793 C111.3784,103.8123 109.9734,105.2183 108.2394,105.2183 L42.0894,105.2183 C40.3564,105.2183 38.9504,103.8123 38.9504,102.0793 L38.9504,53.4253 C38.9504,51.6913 40.3564,50.2863 42.0894,50.2863 L108.2394,50.2863 C109.9734,50.2863 111.3784,51.6913 111.3784,53.4253" id="Fill-5" fill="#C3C3C3"></path>
                <path d="M45.4397,81.1534 C43.5647,81.1534 42.0437,79.6304 42.0437,77.7524 C42.0437,75.8734 43.5647,74.3514 45.4397,74.3514 C47.3147,74.3514 48.8357,75.8734 48.8357,77.7524 C48.8357,79.6304 47.3147,81.1534 45.4397,81.1534" id="Fill-7" fill="#0047AC"></path>
                <mask id="mask-2" fill="white">
                    <use xlink:href="#path-1"></use>
                </mask>
                <g id="Clip-10"></g>
                <path d="M50.884,100.458 L106.52,100.458 L106.52,55.045 L50.884,55.045 L50.884,100.458 Z" id="Fill-9" fill="#0047B1" mask="url(#mask-2)"></path>
                <path d="M50.884,77.524 L106.52,77.524 L106.52,55.045 L50.884,55.045 L50.884,77.524 Z" id="Fill-11" fill="#181D68" mask="url(#mask-2)"></path>
                <path d="M98.1011,75.4316 C99.5601,76.6356 99.5601,78.8686 98.1011,80.0726 C94.4111,83.1176 87.1081,88.0786 78.7021,88.0786 C70.2951,88.0786 62.9931,83.1176 59.3021,80.0726 C57.8431,78.8686 57.8431,76.6356 59.3021,75.4316 C62.9931,72.3866 70.2951,67.4256 78.7021,67.4256 C87.1081,67.4256 94.4111,72.3866 98.1011,75.4316" id="Fill-12" fill="#FFFFFF" mask="url(#mask-2)"></path>
                <path d="M89.096,77.7522 C89.096,83.5022 84.442,88.1642 78.702,88.1642 C72.961,88.1642 68.307,83.5022 68.307,77.7522 C68.307,72.0022 72.961,67.3402 78.702,67.3402 C84.442,67.3402 89.096,72.0022 89.096,77.7522" id="Fill-13" fill="#0094D5" mask="url(#mask-2)"></path>
                <path d="M53.3726,39.6136 C60.8326,34.6936 69.5626,32.0436 78.7026,32.0436 C87.8426,32.0436 96.5726,34.6936 104.0326,39.6136" id="Stroke-14" stroke="#0094D5" stroke-linecap="round" stroke-linejoin="round" mask="url(#mask-2)"></path>
                <path d="M51.1004,50.2623 L51.0654,50.2973 L78.7014,77.9803 L106.3384,50.2973 L106.3034,50.2623 C91.0594,34.9933 66.3444,34.9933 51.1004,50.2623" id="Fill-15" fill="#0094D5" mask="url(#mask-2)"></path>
                <path d="M60.8944,60.0975 L60.8714,60.1205 L78.7014,77.9795 L96.5314,60.1205 L96.5094,60.0975 C86.6744,50.2465 70.7294,50.2465 60.8944,60.0975" id="Fill-16" fill="#0047B1" mask="url(#mask-2)"></path>
                <path d="M50.8836,116.9565 L98.0926,116.9565" id="Stroke-17" stroke="#0047AC" stroke-linecap="round" mask="url(#mask-2)"></path>
                <path d="M117.0176,71.3367 L117.0176,84.1677" id="Stroke-18" stroke="#0047AC" stroke-width="3" stroke-linecap="round" mask="url(#mask-2)"></path>
            </g>
        </g>
    </g>
</svg>