<?xml version="1.0" encoding="UTF-8" standalone="no"?>
<svg width="91px" height="91px" viewBox="0 0 91 91" version="1.1" xmlns="http://www.w3.org/2000/svg" xmlns:xlink="http://www.w3.org/1999/xlink">
    <!-- Generator: sketchtool 3.6 (26304) - http://www.bohemiancoding.com/sketch -->
    <title>zone icon</title>
    <desc>Created with sketchtool.</desc>
    <defs></defs>
    <g id="Page-1" stroke="none" stroke-width="1" fill="none" fill-rule="evenodd" stroke-linecap="round" stroke-linejoin="round">
        <g id="Seccion-de-Producto-6M---Servicios" transform="translate(-412.000000, -331.000000)">
            <g id="zone-icon" transform="translate(412.000000, 331.000000)">
                <path d="M90.4406,43.1582 C91.7936,69.8592 69.8596,91.7932 43.1586,90.4402 C20.2956,89.2822 1.7176,70.7052 0.5596,47.8422 C-0.7934,21.1402 21.1406,-0.7938 47.8416,0.5592 C70.7046,1.7182 89.2816,20.2952 90.4406,43.1582 L90.4406,43.1582 Z" id="Stroke-1" stroke="#D0D0D0"></path>
                <path d="M59.7585,65.813 L53.4615,65.997 C53.0555,66.009 52.6635,66.149 52.3415,66.398 L47.3555,70.248 C46.6965,70.758 45.7835,70.784 45.0955,70.315 L39.8925,66.762 C39.5575,66.533 39.1575,66.416 38.7515,66.428 L32.4545,66.613 C31.6215,66.637 30.8675,66.122 30.5875,65.338 L28.4655,59.406 C28.3295,59.023 28.0745,58.694 27.7395,58.465 L22.5365,54.913 C21.8485,54.443 21.5405,53.583 21.7745,52.784 L23.5455,46.738 C23.6595,46.348 23.6475,45.932 23.5105,45.549 L21.3895,39.617 C21.1085,38.833 21.3655,37.957 22.0245,37.447 L27.0105,33.597 C27.3325,33.349 27.5665,33.005 27.6815,32.615 L29.4515,26.569 C29.6855,25.769 30.4085,25.211 31.2415,25.187 L37.5385,25.003 C37.9445,24.991 38.3365,24.851 38.6575,24.602 L43.6435,20.752 C44.3035,20.242 45.2155,20.216 45.9045,20.685 L51.1075,24.238 C51.4425,24.467 51.8415,24.584 52.2475,24.572 L58.5455,24.387 C59.3785,24.363 60.1315,24.878 60.4125,25.662 L62.5335,31.594 C62.6705,31.977 62.9255,32.306 63.2605,32.535 L68.4635,36.087 C69.1515,36.557 69.4595,37.417 69.2245,38.216 L67.4545,44.262 C67.3405,44.652 67.3525,45.068 67.4895,45.451 L69.6105,51.383 C69.8915,52.167 69.6345,53.043 68.9755,53.553 L63.9885,57.403 C63.6675,57.651 63.4325,57.995 63.3185,58.385 L61.5485,64.431 C61.3135,65.231 60.5915,65.789 59.7585,65.813 L59.7585,65.813 Z" id="Stroke-3" stroke="#8F8F8F"></path>
                <path d="M61.8434,50.927 C61.8434,41.893 54.5334,34.584 45.5004,34.584 C36.4664,34.584 29.1564,41.893 29.1564,50.927" id="Stroke-5" stroke="#0047A3"></path>
                <path d="M32.4252,50.927 C32.4252,43.7 38.2732,37.852 45.5002,37.852 C52.7272,37.852 58.5752,43.7 58.5752,50.927" id="Stroke-7" stroke="#0047A3"></path>
                <path d="M55.306,50.927 C55.306,45.507 50.92,41.121 45.5,41.121 C40.08,41.121 35.694,45.507 35.694,50.927" id="Stroke-9" stroke="#0047A3"></path>
                <path d="M38.9625,50.9375 C38.9625,47.4025 41.9195,44.5415 45.5735,44.5415 C49.2275,44.5415 52.1845,47.4025 52.1845,50.9375" id="Stroke-11" stroke="#8F8F8F"></path>
            </g>
        </g>
    </g>
</svg>