<?xml version="1.0" encoding="UTF-8" standalone="no"?>
<svg width="91px" height="91px" viewBox="0 0 91 91" version="1.1" xmlns="http://www.w3.org/2000/svg" xmlns:xlink="http://www.w3.org/1999/xlink">
    <!-- Generator: sketchtool 3.6 (26304) - http://www.bohemiancoding.com/sketch -->
    <title>mail icon</title>
    <desc>Created with sketchtool.</desc>
    <defs>
        <path id="path-1" d="M0,0 L91,0 L91,91 L0,91 L0,0 Z"></path>
    </defs>
    <g id="Page-1" stroke="none" stroke-width="1" fill="none" fill-rule="evenodd">
        <g id="Seccion-de-Producto-6M---Servicios" transform="translate(-89.000000, -332.000000)">
            <g id="mail-icon" transform="translate(89.000000, 332.000000)">
                <path d="M90.4406,43.1582 C91.7936,69.8592 69.8596,91.7932 43.1586,90.4402 C20.2956,89.2822 1.7176,70.7052 0.5596,47.8422 C-0.7934,21.1402 21.1406,-0.7938 47.8416,0.5592 C70.7046,1.7182 89.2816,20.2952 90.4406,43.1582 L90.4406,43.1582 Z" id="Stroke-1" stroke="#D0D0D0" stroke-linecap="round" stroke-linejoin="round"></path>
                <path d="M67.3692,59.3658 L51.8272,43.8238" id="Stroke-3" stroke="#8F8F8F" stroke-linecap="round" stroke-linejoin="round"></path>
                <path d="M23.6309,59.3658 L39.1729,43.8238" id="Stroke-5" stroke="#8F8F8F" stroke-linecap="round" stroke-linejoin="round"></path>
                <mask id="mask-2" fill="white">
                    <use xlink:href="#path-1"></use>
                </mask>
                <g id="Clip-8"></g>
                <path d="M23.631,31.634 L67.37,31.634 L67.37,59.366 L23.631,59.366 L23.631,31.634 Z" id="Stroke-7" stroke="#949491" stroke-width="1.25" stroke-linecap="round" stroke-linejoin="round" mask="url(#mask-2)"></path>
                <path d="M23.6308,32.0461 L45.4998,48.6161 L67.3698,32.0461" id="Stroke-9" stroke="#0047A3" stroke-linecap="round" stroke-linejoin="round" mask="url(#mask-2)"></path>
            </g>
        </g>
    </g>
</svg>